<?xml version="1.0" encoding="utf-8"?>
<!-- Generator: Adobe Illustrator 21.1.0, SVG Export Plug-In . SVG Version: 6.00 Build 0)  -->
<svg version="1.1" id="Layer_1" xmlns="http://www.w3.org/2000/svg" xmlns:xlink="http://www.w3.org/1999/xlink" x="0px" y="0px"
	 viewBox="0 0 643.6 229.6" style="enable-background:new 0 0 643.6 229.6;" xml:space="preserve">
<style type="text/css">
	.st0{fill:#E6E6E6;}
</style>
<path class="st0" d="M366.5,125.5c-0.8,1.2-1.3,2-1.8,2.8c-5.1,7.3-10.9,14-18.7,18.6c-10.5,6.2-21.8,8.8-33.7,6.2
	c-6.1-1.3-11.7-4.7-17.5-7.4c-1.3-0.6-2-0.6-3.2,0.1c-4.9,2.9-9.7,6.1-14.9,8.4c-9.2,4-18.9,6.2-29,3.6c-6.3-1.7-11.7-5.2-16.7-9.5
	c-3.5-3-3.7-3-7.2-0.1c-6.4,5.2-13.7,8.6-21.4,11.4c-9.5,3.5-19.4,5.6-29.4,6.6c-12.3,1.2-23.6-0.9-31.9-11
	c-6.7-8.1-8.4-17.5-4.4-27.2c4.5-10.7,9.6-21.1,14.5-31.6c2.5-5.5,5.1-10.9,7.5-16.5c0.4-1,0.6-2.2,0.7-3.3c0.1-2.1,0.5-4.3-1.9-5.5
	c-2.4-1.3-5.3-1-7.1,1.2c-2.2,2.8-4.2,5.9-5.9,9.1c-5.5,10.5-10.8,21.2-16.2,31.8c-4,8-8,16-12,23.9c-3.8,7.5-11.1,10.4-18.9,7.5
	c-2.6-1-4.3-2.9-4.7-5.9c-0.6-4.2,0.7-8,2.2-11.7c3.3-8.2,6.5-16.4,9.8-24.7c1.7-4.4,3.5-8.8,5.1-13.3c1.1-3.1,1.5-6.4,0.2-9.5
	c-1-2.4-3.1-4.1-5.9-3.8c-3.1,0.3-5.6,1.9-6.7,4.8c-4.1,10.2-8.1,20.5-12.2,30.7c-4.9,12.3-9.7,24.5-14.7,36.7
	c-1.9,4.5-4.7,8.6-9.5,10.5c-2.4,1-5.1,1.6-7.7,1.6c-8.1,0.1-15.1-2.6-19.9-9.5c-3.8-5.5-4.7-11.6-2.9-18c1.7-6,3.4-11.9,5.2-17.9
	c1.7-5.6,3.5-11.2,5.2-16.8c1.6-5.2,3.2-10.5,4.9-15.7c3.5-10.2,6.3-20.7,11.8-30c3.8-6.4,9.9-9.8,16.9-12C82,38,88.2,40.8,94.5,44
	c2.4,1.2,4.7,2.4,7.2,3.5c3.4,1.4,6.5,0.5,9.3-1.7c2.2-1.8,4.5-3.7,6.6-5.7c5.2-5.1,16.4-6,21.8-0.1c1.3,1.4,2.7,2.5,4.1,3.7
	c2.9,2.5,4,2.8,7.4,0.9c7.9-4.4,16-3.8,24-1c4.7,1.7,7.4,5.6,9.2,10.3c2.6,6.9,1.5,13.5-1.1,20c-4.8,11.9-10.1,23.7-14.8,35.6
	c-2.8,7.1-5.1,14.4-7.1,21.7c-0.8,3-0.8,6.6-0.1,9.6c1.2,4.6,5.3,6.1,9.5,6.6c6.4,0.8,12.7-0.4,18.9-2.1c5.3-1.4,10.4-3.2,15.6-5.1
	c2.5-0.9,4.8-2.3,7.2-3.5c2-1,2.2-2.5,1.1-4.4c-2.2-3.8-4.5-7.6-6.4-11.6c-4.1-8.4-7.4-17.1-6.5-26.7c0.8-8.4,3.8-15.7,11.6-20.1
	c11.4-6.5,20.7-4.7,29.1,5c7.3,8.4,9.7,18.6,6.5,29.4c-1.7,6.1-4.2,11.9-6.6,17.8c-0.7,1.6-0.3,2.7,0.8,3.6
	c4.8,4.5,10.3,8,16.4,10.5c2.3,0.9,4.7,1.6,7.2,2.1c5.2,1,10.1-0.2,14.5-3.2c2.1-1.4,2.1-2.7,0.7-4.7c-10-13.7-14-28.9-11-45.6
	c1.1-6.3,4-12.2,10.8-14c4.2-1.1,8.9-1.1,13.2-0.5c7,0.9,13.4,3.7,17.7,9.7c5.2,7.3,6.5,15.2,4.3,23.9c-1.6,6.2-4.9,11.5-8.5,16.7
	c-1.4,2-1.5,3.9,0.5,5.3c3,2.1,6,4.4,9.4,5.6c7.3,2.6,15,2.4,22.4,0c8.1-2.6,13.8-8,17-16c3.9-9.5,3.9-19.5,3.7-29.5
	c-0.2-7.8-0.4-15.7-0.7-23.5c-0.1-2.8-0.5-3-3.2-2.4c-7,1.4-14.1,2.7-21.1,4c-2.2,0.4-4.5,0.7-6.7,1.1c-4.8,0.9-8.8-1.1-9.1-6.8
	c-0.3-5.7-1.1-11.4-1.7-17.1c0-0.3-0.1-0.6-0.1-1c-0.3-6.7,1.3-10.4,9.3-10.1c8.3,0.3,16.6,0.6,24.9,1c4.1,0.2,5.5-0.8,5.8-4.9
	c0.2-3.1,0.3-6.3,0.5-9.4c0.3-4.7,1.4-5.8,6.2-5.6c2.9,0.1,5.7,0.6,8.5,1.2c3.9,0.9,6,3.7,6.3,7.6c0.2,3.2,0.1,6.5,0.1,9.7
	c0,2.3,0.7,3.5,3.2,3.8c7.4,0.8,14.7,1.8,22.1,2.7c3.5,0.4,5.4,1.8,5.9,4.4c0.8,4.5-0.2,7.6-3.5,8.8c-4.7,1.7-9.6,3-14.6,4.2
	c-3.4,0.8-7,1.2-10.5,1.9c-2.3,0.4-3.6,1.7-3.6,4.3c0.1,13-0.2,26,0.2,39c0.2,6.8,1.2,13.6,4.1,20c2.3,5.2,6.4,7.2,11.9,6.3
	c8.2-1.4,15.7-4.2,22.2-9.4c3.6-2.9,6-6.4,6.2-11.2c0.3-8.9,0.8-17.8,1.3-26.6c0.2-2.6,0.4-5.2,1.3-7.6c0.5-1.3,2.2-3.1,3.4-3.1
	c6.7-0.2,13.4-0.3,20.1,0.3c4.2,0.4,7.1,4.3,6.8,8.7c-0.3,6.2-1.1,12.4-1.7,18.6c-0.7,7.6-1.4,15.3-2.2,22.9
	c-0.8,7.7,5.3,11.5,11.5,11.6c5.1,0.1,8.1-1.9,10.3-7.3c2.3-5.6,3.6-11.7,4.6-17.7c1.4-8.5,2-17.1,3-25.7c0.4-3.5,2.6-6.2,5.3-6.8
	c3.1-0.7,7.3,0.6,8.3,3.5c0.9,2.4,0.7,5.3,0.4,8c-1.1,9.8-2.7,19.5-3.6,29.3c-0.6,6,2.8,10.3,8.6,12.1c2.9,0.9,5.9,1.6,8.9,1.9
	c5.3,0.6,9-3.3,10.1-9.3c0.9-5.1,1.1-10.3,1.5-15.4c0.5-6.1,0.6-12.3,1.7-18.3c1.5-8.9,7.3-17,18-19.6c6.4-1.6,12.9-1.7,19.3-1
	c9.7,1.1,19.9,7.7,23.1,18.9c2.4,8.5,1.4,16.7-1.4,24.9c-3.2,9.5-9.1,16.9-17.4,22.5c-0.8,0.5-1.2,1.5-1.8,2.3
	c1,0.5,2.1,1.3,3.1,1.3c9.8-0.2,19.1-2.4,27.6-7.6c1.9-1.2,4-2,6-3c1.9-0.9,3,0.2,2.4,1.8c-0.9,2.7-1.9,5.5-3.6,7.7
	c-7.3,9.2-17.2,13.6-28.7,14.4c-4.9,0.3-9.8-0.3-14.7-0.6c-3.7-0.2-7.4-0.5-11.1-0.8c-1.9-0.1-3,0.7-3.4,2.6c-3,12.2-4.5,24.6-6,37
	c-1,7.8-2.4,15.6-4.3,23.3c-1,4.2-4.3,7-8.7,7.7c-2.7,0.4-4.7-0.7-5.6-3.2c-0.8-2.1-1.5-4.3-1.6-6.5c-0.9-10.9-0.5-21.8,0.9-32.6
	c0.7-5.5,1.2-11.1,1.9-16.6c0.4-3.8,1-7.7,1.4-11.5c0.3-3.1-0.4-3.8-3.4-4.4c-6.2-1.2-12.3-2.4-18.5-3.8c-4.2-0.9-7.4,0.6-10.3,3.4
	c-3.8,3.8-7.9,7.1-12.8,9.3c-5.9,2.6-12.3,2.1-18.4,1.1c-8.8-1.4-15.9-6-20.9-13.5c-1.6-2.3-2.7-4.9-3.9-7.4c-0.7-1.4-1.3-2-3-1.1
	c-5.9,3-11.7,6.1-17.8,8.6c-6.7,2.9-13.9,3.9-21.1,1.9c-7-2-12.3-6.5-16.8-12.1C369.5,129.3,368.4,127.8,366.5,125.5z M567.8,97.5
	c-0.1-1-0.1-1.9-0.2-2.9c-0.9-5.5-6.4-8-10.9-4.7c-2,1.5-3.8,3.5-5.2,5.6c-4.6,7-6.7,15.1-8.7,23.1c-0.5,2-0.9,4.1-0.8,6.2
	c0.1,3.9,2.3,5,5.6,2.9c6.7-4.3,11.7-10.3,15.8-17C565.8,106.7,567.9,102.5,567.8,97.5z M305.1,101.4c0.1-3.8-0.8-7.4-3.7-10.1
	c-1.6-1.5-3.5-2.2-5.8-1.5c-2.7,0.8-4.2,2.9-4.4,6.2c-0.4,6.5,2.4,12.1,5.3,17.5c1.5,2.8,2.9,2.7,4.8,0.1
	C304,110,305.1,105.8,305.1,101.4z M239,100.1c-0.7-2.3-1.2-4.8-2.2-7c-1.3-2.8-4.6-4.1-7.6-3.3c-3.1,0.8-4.3,2.3-4,6.1
	c0.3,3.3,1.1,6.7,1.9,9.9c0.7,2.4,1.7,4.7,2.8,6.9c1.6,2.9,3.3,3,4.8,0.1C237,109,238.7,104.9,239,100.1z"/>
</svg>
