<?xml version="1.0" encoding="utf-8"?>
<!-- Generator: Adobe Illustrator 21.1.0, SVG Export Plug-In . SVG Version: 6.00 Build 0)  -->
<svg version="1.1" id="Capa_1" xmlns="http://www.w3.org/2000/svg" xmlns:xlink="http://www.w3.org/1999/xlink" x="0px" y="0px"
	 viewBox="0 0 924 924" style="enable-background:new 0 0 924 924;" xml:space="preserve">
<style type="text/css">
	.st0{fill:#FFFFFF;}
</style>
<g>
	<path class="st0" d="M91.6,473L40,421.4c-3.2-3.2-8.1-3.8-12-1.5L1.2,436.2c-13.1-7.3-27-13.1-41.7-17.3l-7.5-30.5
		c-1.1-4.4-5-7.4-9.5-7.4h-72.9c-4.5,0-8.4,3.1-9.5,7.4l-7.5,30.5c-14.7,4.2-28.7,10-41.7,17.3l-26.9-16.3c-3.9-2.3-8.8-1.7-12,1.5
		l-51.5,51.5c-3.2,3.2-3.8,8.1-1.5,12l16.3,26.9c-7.3,13.1-13.1,27-17.3,41.7l-30.5,7.5c-4.4,1.1-7.4,5-7.4,9.5v72.9
		c0,4.5,3.1,8.4,7.4,9.5l30.5,7.5c4.2,14.7,10,28.7,17.3,41.7l-16.3,26.9c-2.3,3.9-1.7,8.8,1.5,12l51.5,51.5c3.2,3.2,8.1,3.8,12,1.5
		l26.9-16.3c13.1,7.3,27,13.1,41.7,17.3l7.5,30.5c1.1,4.4,5,7.4,9.5,7.4h72.9c4.5,0,8.4-3.1,9.5-7.4l7.5-30.5
		c14.7-4.2,28.7-10,41.7-17.3L28.1,794c3.9,2.3,8.8,1.7,12-1.5L91.6,741c3.2-3.2,3.8-8.1,1.5-12l-16.3-26.9
		c7.3-13.1,13.1-27,17.3-41.7l30.5-7.5c4.4-1.1,7.4-5,7.4-9.5v-72.9c0-4.5-3.1-8.4-7.4-9.5l-30.5-7.5c-4.2-14.7-10-28.7-17.3-41.7
		L93,484.9C95.4,481.1,94.8,476.1,91.6,473z M-94,709c-56.3,0-102-45.7-102-102c0-56.3,45.7-102,102-102S8,550.7,8,607
		C8,663.3-37.7,709-94,709z"/>
</g>
</svg>
